<?xml version="1.0" standalone="no"?>
<!DOCTYPE svg PUBLIC "-//W3C//DTD SVG 20010904//EN"
 "http://www.w3.org/TR/2001/REC-SVG-20010904/DTD/svg10.dtd">
<svg version="1.0" xmlns="http://www.w3.org/2000/svg"
 width="1080.000000pt" height="1080.000000pt" viewBox="0 0 1080.000000 1080.000000"
 preserveAspectRatio="xMidYMid meet">
<metadata>
Created by potrace 1.11, written by Peter Selinger 2001-2013
</metadata>
<g transform="translate(0.000000,1080.000000) scale(0.100000,-0.100000)"
fill="#000000" stroke="none">
<path d="M5298 10034 c-64 -27 -72 -60 -64 -257 4 -93 9 -219 11 -280 6 -198
17 -382 21 -389 3 -4 5 -63 5 -130 -1 -157 8 -187 60 -224 71 -49 153 -27 172
47 11 40 2 340 -17 599 -4 41 -8 140 -11 220 -3 80 -8 165 -11 190 -2 25 0 67
7 93 10 44 9 52 -8 75 -46 62 -104 82 -165 56z"/>
<path d="M6695 9708 c-11 -6 -26 -19 -32 -27 -38 -48 -183 -317 -336 -621 -57
-113 -109 -214 -115 -225 -27 -46 -102 -208 -102 -219 0 -7 -13 -37 -29 -67
-16 -30 -33 -71 -36 -92 -7 -35 -4 -40 39 -84 45 -44 47 -46 93 -39 53 7 76
24 93 69 6 18 20 50 30 72 31 67 60 134 60 140 0 8 77 164 88 178 10 12 71
133 231 457 45 91 102 203 126 249 26 49 45 98 45 116 0 43 -32 82 -78 95 -46
12 -52 12 -77 -2z"/>
<path d="M7595 8781 c-94 -46 -311 -170 -364 -207 -13 -9 -45 -28 -70 -41 -25
-14 -62 -37 -81 -52 -31 -24 -52 -38 -145 -94 -11 -6 -42 -28 -70 -48 -27 -19
-72 -49 -100 -64 -89 -52 -109 -81 -90 -135 15 -44 66 -80 115 -80 37 0 87 28
259 143 40 26 74 47 76 47 2 0 32 20 67 44 35 24 90 58 123 76 33 18 67 38 75
44 8 7 33 21 55 31 22 11 47 25 55 31 40 31 231 134 247 134 33 0 75 54 80
103 5 38 1 48 -23 76 -47 53 -89 51 -209 -8z"/>
<path d="M4910 8131 c-74 -20 -185 -75 -250 -123 -24 -18 -69 -51 -100 -73
-47 -33 -161 -125 -180 -145 -3 -3 -50 -41 -105 -85 -55 -43 -125 -102 -155
-130 -30 -29 -111 -103 -179 -166 -68 -62 -136 -129 -150 -149 -62 -84 -175
-214 -292 -335 -70 -71 -151 -164 -182 -205 -30 -41 -67 -88 -82 -105 -46 -51
-162 -211 -183 -251 -11 -22 -41 -70 -66 -107 -42 -63 -98 -171 -211 -412 -23
-49 -48 -106 -55 -125 -7 -19 -18 -48 -25 -65 -18 -40 -45 -175 -45 -220 0
-43 -19 -125 -33 -143 -12 -15 -12 -20 -22 -253 -7 -142 -5 -197 9 -295 29
-199 56 -345 80 -429 26 -89 103 -275 143 -345 14 -25 39 -70 56 -100 54 -100
75 -138 100 -177 13 -21 50 -87 82 -148 32 -60 77 -136 99 -169 61 -87 111
-164 147 -226 17 -30 38 -62 46 -70 8 -8 48 -62 90 -120 41 -57 96 -129 121
-158 26 -30 50 -59 54 -65 4 -7 40 -48 80 -91 178 -194 292 -305 414 -405 141
-115 299 -243 353 -288 19 -15 42 -31 52 -35 11 -4 19 -11 19 -16 0 -5 30 -33
68 -62 232 -186 594 -619 714 -855 41 -81 72 -110 126 -120 62 -10 112 13 138
64 32 65 29 114 -12 181 -19 30 -34 59 -34 64 0 4 -16 27 -35 50 -19 24 -35
47 -35 52 0 19 -155 228 -197 267 -13 11 -23 26 -23 33 0 10 -47 67 -140 170
-20 21 -90 91 -157 154 -115 110 -241 216 -488 409 -27 21 -60 48 -72 60 -12
12 -26 21 -30 21 -4 0 -24 15 -44 33 -20 19 -72 65 -115 103 -107 95 -368 374
-391 419 -8 14 -34 46 -59 72 -25 26 -64 74 -85 106 -22 33 -60 84 -85 112
-24 29 -44 59 -44 68 0 8 -16 34 -35 57 -19 23 -35 47 -35 53 0 11 -35 66 -81
127 -14 19 -47 76 -73 125 -26 50 -54 97 -62 106 -8 8 -14 19 -14 22 0 4 -24
44 -53 90 -72 111 -227 418 -227 450 0 6 -6 24 -14 38 -20 38 -56 163 -56 194
0 14 -6 38 -14 53 -7 15 -16 70 -18 123 -3 60 -11 108 -21 129 -9 18 -14 36
-12 41 3 4 1 27 -4 51 -8 36 -7 49 11 85 17 34 20 53 15 110 -5 65 -2 90 29
215 8 32 14 74 14 93 0 41 25 120 69 217 16 37 33 85 37 105 4 21 20 54 35 73
15 19 59 97 98 173 71 139 166 284 247 379 24 29 44 57 44 63 0 7 14 24 30 38
17 15 30 31 30 36 0 21 198 234 255 274 14 11 30 29 36 40 15 36 32 59 77 109
23 26 42 53 43 60 0 7 57 65 126 128 70 63 164 152 210 198 46 45 87 82 91 82
4 0 18 10 32 23 14 13 46 37 72 55 26 18 56 45 67 61 11 15 33 34 48 40 16 6
38 26 51 45 12 18 42 43 66 55 23 13 56 35 72 49 15 15 44 35 64 45 19 11 58
35 86 54 62 41 116 50 159 23 31 -19 98 -20 133 -1 31 17 47 57 34 86 -7 14
-12 37 -12 51 0 36 -14 57 -57 86 -52 35 -136 42 -223 19z"/>
<path d="M5510 8053 c-92 -34 -237 -110 -306 -160 -154 -112 -253 -198 -344
-300 -19 -22 -76 -84 -126 -139 -162 -178 -167 -183 -412 -524 -78 -107 -161
-222 -185 -255 -24 -33 -75 -105 -112 -160 -37 -55 -83 -120 -102 -145 -18
-25 -52 -74 -75 -110 -23 -36 -54 -84 -70 -108 -15 -24 -28 -47 -28 -51 0 -5
-7 -14 -16 -22 -9 -7 -28 -38 -44 -68 -15 -31 -70 -139 -122 -241 -82 -163
-123 -262 -193 -469 -25 -73 -21 -149 8 -178 20 -20 26 -22 60 -11 49 15 60
29 87 118 13 41 32 89 42 105 10 17 18 42 18 56 0 15 7 32 15 39 8 7 19 26 24
44 26 83 52 151 65 165 7 9 21 37 31 64 10 26 37 77 61 114 24 36 44 74 44 83
0 16 36 71 77 116 11 12 32 43 48 70 15 27 38 60 50 74 13 14 31 41 42 61 22
43 71 119 112 175 17 23 31 47 31 53 0 7 13 25 28 39 37 35 115 138 136 180 9
18 32 50 50 70 18 20 55 71 82 113 52 79 53 81 107 144 18 22 45 60 59 85 15
25 36 53 47 62 12 10 21 25 21 33 0 8 18 26 40 40 23 14 45 37 50 50 5 13 21
31 35 41 14 9 25 21 25 26 0 15 236 248 250 248 6 0 40 27 75 61 60 58 109 92
148 105 9 4 17 10 17 15 0 5 6 9 14 9 8 0 44 14 81 30 95 43 145 39 200 -15
67 -67 61 -113 -36 -309 -16 -33 -29 -69 -29 -82 0 -23 -10 -33 -180 -175 -92
-77 -310 -291 -357 -351 -16 -20 -70 -81 -120 -135 -91 -98 -187 -216 -253
-313 -19 -28 -42 -59 -50 -67 -38 -40 -232 -332 -294 -442 -26 -45 -62 -106
-80 -135 -56 -87 -131 -240 -231 -471 -52 -120 -75 -252 -61 -350 12 -78 85
-139 145 -120 11 3 32 22 47 43 26 33 29 46 31 122 2 59 9 98 23 127 11 24 20
51 20 60 0 10 16 45 35 78 19 33 44 80 55 105 49 104 143 286 155 300 7 8 29
46 49 85 20 38 45 79 55 90 10 11 21 27 24 35 4 8 20 38 37 65 16 28 36 64 44
80 8 17 40 59 70 94 31 36 61 82 68 102 6 22 30 56 56 81 25 24 60 66 78 93
17 28 60 80 94 115 152 159 177 187 194 221 11 20 33 45 50 55 17 9 84 71 149
136 65 65 122 118 127 118 4 0 39 27 78 59 86 72 140 104 217 131 41 14 62 17
69 10 6 -6 13 -55 14 -109 4 -93 2 -102 -36 -202 -45 -119 -47 -124 -251 -412
-30 -42 -69 -101 -85 -130 -17 -30 -52 -85 -77 -123 -51 -78 -165 -294 -226
-429 -143 -315 -143 -317 -177 -435 -35 -121 -47 -191 -56 -309 -8 -118 -2
-155 41 -247 26 -54 59 -93 200 -235 148 -149 196 -206 281 -337 10 -15 30
-52 45 -82 15 -30 46 -89 69 -130 23 -41 47 -102 54 -135 7 -33 20 -92 30
-130 48 -189 32 -477 -35 -620 -8 -16 -38 -84 -66 -150 -58 -136 -64 -145 -90
-145 -21 0 -26 -16 -7 -22 12 -4 -28 -100 -65 -152 -28 -39 -29 -116 -3 -145
35 -38 157 -24 171 21 4 10 10 18 14 18 4 0 16 17 27 37 10 21 24 45 31 53 6
8 33 58 59 110 26 52 58 108 71 123 12 16 26 41 29 55 10 40 80 251 98 294 10
23 16 66 16 110 0 40 4 89 10 108 6 23 6 47 -1 73 -6 21 -10 84 -10 139 0 79
-7 127 -35 239 -19 77 -34 148 -34 158 0 10 -9 30 -20 44 -24 31 -100 179
-100 196 0 6 -12 30 -27 53 -16 22 -32 48 -38 57 -52 83 -125 179 -162 214
-26 23 -60 57 -77 76 -17 19 -49 53 -71 76 -87 89 -132 151 -150 206 -18 55
-18 57 3 138 12 45 22 94 22 109 0 15 12 54 26 87 13 33 29 78 34 100 11 51
32 109 47 126 6 8 16 31 24 52 7 20 16 37 19 37 4 0 17 -54 30 -119 29 -151
24 -209 -24 -306 -32 -64 -35 -75 -29 -128 5 -47 11 -62 35 -82 36 -30 66 -31
117 -6 34 18 42 31 81 123 59 138 64 224 25 420 -31 161 -30 147 -21 283 7
110 7 111 -18 138 -32 34 -32 42 -3 81 13 17 35 51 49 76 15 25 39 59 53 75
15 17 40 55 56 86 15 31 50 85 76 120 57 76 123 182 123 199 0 7 14 25 30 40
33 31 90 132 90 160 0 10 7 35 17 56 11 27 18 85 23 184 11 219 -4 271 -110
383 -37 38 -81 57 -134 57 -26 0 -28 2 -21 28 4 15 9 78 11 140 5 125 -6 166
-65 240 -34 44 -125 109 -178 128 -38 13 -144 17 -173 7z"/>
<path d="M6215 7819 c-81 -12 -97 -31 -93 -113 l3 -61 50 -28 c29 -15 59 -25
71 -22 30 7 106 -47 126 -89 9 -19 22 -61 29 -93 17 -81 -2 -316 -36 -449 -50
-198 -67 -326 -72 -562 -5 -183 -3 -235 10 -285 9 -34 21 -87 28 -117 32 -151
110 -311 193 -400 23 -25 62 -71 85 -102 24 -32 47 -58 52 -58 10 0 64 -77
102 -145 52 -94 147 -297 147 -315 0 -7 15 -51 34 -99 81 -209 109 -363 88
-489 -6 -37 -19 -114 -27 -171 -9 -58 -21 -113 -26 -122 -5 -10 -9 -25 -9 -33
0 -28 -170 -364 -220 -433 -86 -120 -129 -177 -172 -226 -37 -42 -41 -51 -30
-67 7 -11 12 -32 12 -47 0 -41 37 -105 81 -138 22 -16 39 -33 39 -37 0 -5 17
-27 38 -51 21 -23 55 -71 76 -107 68 -119 83 -142 111 -169 15 -14 47 -53 72
-86 41 -54 65 -89 143 -206 14 -20 41 -55 61 -77 46 -52 109 -137 109 -149 0
-4 14 -26 32 -47 28 -34 35 -38 66 -32 39 6 76 36 99 80 13 26 13 33 -3 70
-10 22 -26 52 -35 66 -123 187 -230 344 -249 365 -21 22 -51 64 -103 140 -19
28 -43 59 -53 70 -32 34 -67 87 -90 135 -12 25 -49 76 -81 114 -32 38 -62 74
-67 81 -7 9 -2 24 15 47 14 18 36 53 48 78 22 43 50 82 89 125 11 11 38 63 62
115 24 52 49 100 55 105 7 6 16 21 20 35 4 14 14 32 21 41 17 19 63 131 74
179 47 208 64 334 62 464 -2 65 -7 139 -13 163 -5 25 -12 70 -15 100 -2 31
-11 68 -19 84 -8 15 -15 37 -15 49 0 12 -6 33 -13 48 -7 15 -19 52 -26 82 -8
30 -24 69 -37 87 -13 17 -24 39 -24 48 0 39 -55 167 -103 240 -29 44 -58 92
-64 106 -6 15 -44 65 -85 112 -40 47 -91 107 -113 133 -22 26 -48 56 -57 66
-10 10 -18 22 -18 27 0 6 -8 25 -19 43 -21 37 -64 166 -80 243 -35 160 -35
309 0 535 10 69 21 145 23 170 2 25 11 59 19 75 20 38 46 273 43 385 -3 104
-19 211 -39 266 -28 76 -139 199 -212 236 -42 21 -99 27 -170 17z"/>
<path d="M5390 1485 c-20 -24 4 -45 26 -24 13 14 13 17 1 27 -11 10 -17 9 -27
-3z"/>
</g>
</svg>
